ffmpeg version 3.4.8-0ubuntu0.2 Copyright (c) 2000-2020 the FFmpeg developers
  built with gcc 7 (Ubuntu 7.5.0-3ubuntu1~18.04)
  configuration: --prefix=/usr --extra-version=0ubuntu0.2 --toolchain=hardened --libdir=/usr/lib/x86_64-linux-gnu --incdir=/usr/include/x86_64-linux-gnu --enable-gpl --disable-stripping --enable-avresample --enable-avisynth --enable-gnutls --enable-ladspa --enable-libass --enable-libbluray --enable-libbs2b --enable-libcaca --enable-libcdio --enable-libflite --enable-libfontconfig --enable-libfreetype --enable-libfribidi --enable-libgme --enable-libgsm --enable-libmp3lame --enable-libmysofa --enable-libopenjpeg --enable-libopenmpt --enable-libopus --enable-libpulse --enable-librubberband --enable-librsvg --enable-libshine --enable-libsnappy --enable-libsoxr --enable-libspeex --enable-libssh --enable-libtheora --enable-libtwolame --enable-libvorbis --enable-libvpx --enable-libwavpack --enable-libwebp --enable-libx265 --enable-libxml2 --enable-libxvid --enable-libzmq --enable-libzvbi --enable-omx --enable-openal --enable-opengl --enable-sdl2 --enable-libdc1394 --enable-libdrm --enable-libiec61883 --enable-chromaprint --enable-frei0r --enable-libopencv --enable-libx264 --enable-shared
  libavutil      55. 78.100 / 55. 78.100
  libavcodec     57.107.100 / 57.107.100
  libavformat    57. 83.100 / 57. 83.100
  libavdevice    57. 10.100 / 57. 10.100
  libavfilter     6.107.100 /  6.107.100
  libavresample   3.  7.  0 /  3.  7.  0
  libswscale      4.  8.100 /  4.  8.100
  libswresample   2.  9.100 /  2.  9.100
  libpostproc    54.  7.100 / 54.  7.100
[rawvideo @ 0x564dedf53a20] Estimating duration from bitrate, this may be inaccurate
Input #0, rawvideo, from '../../SVC-Encoder-20220109T061506Z-001/SVC-Encoder/Dataset/RollerCoaster/ERP_8x8/tile_yuv/Tile_33_480x240.yuv':
  Duration: 00:00:10.00, start: 0.000000, bitrate: 41472 kb/s
    Stream #0:0: Video: rawvideo (I420 / 0x30323449), yuv420p, 480x240, 41472 kb/s, 30 tbr, 30 tbn, 30 tbc
Stream mapping:
  Stream #0:0 -> #0:0 (rawvideo (native) -> h264 (libx264))
Press [q] to stop, [?] for help
[libx264 @ 0x564dedf60c60] using cpu capabilities: MMX2 SSE2Fast LZCNT SSSE3 SSE4.2 AVX
[libx264 @ 0x564dedf60c60] profile High, level 2.1
Output #0, rawvideo, to 'RollerCoaster_Tile_33_480x240_x264_QP_28.h264':
  Metadata:
    encoder         : Lavf57.83.100
    Stream #0:0: Video: h264 (libx264), yuv420p, 480x240, q=-1--1, 30 fps, 30 tbn, 30 tbc
    Metadata:
      encoder         : Lavc57.107.100 libx264
    Side data:
      cpb: bitrate max/min/avg: 0/0/0 buffer size: 0 vbv_delay: -1
frame=  141 fps=0.0 q=34.0 PSNR=Y:nan U:nan V:nan *:nan size=     113kB time=00:00:03.26 bitrate= 284.6kbits/s speed=6.52x    frame=  274 fps=273 q=34.0 PSNR=Y:nan U:nan V:nan *:nan size=     244kB time=00:00:07.70 bitrate= 259.7kbits/s speed=7.68x    frame=  300 fps=243 q=34.0 LPSNR=Y:inf U:inf V:inf *:inf size=     316kB time=00:00:09.93 bitrate= 260.4kbits/s speed=8.05x    
video:316kB audio:0kB subtitle:0kB other streams:0kB global headers:0kB muxing overhead: 0.000000%
[libx264 @ 0x564dedf60c60] frame I:2     Avg QP:25.52  size: 18071  PSNR Mean Y:39.84 U:46.04 V:48.28 Avg:41.21 Global:41.20
[libx264 @ 0x564dedf60c60] frame P:76    Avg QP:27.50  size:  2973  PSNR Mean Y:37.18 U:45.88 V:47.92 Avg:38.70 Global:38.64
[libx264 @ 0x564dedf60c60] frame B:222   Avg QP:33.43  size:   276  PSNR Mean Y:36.84 U:45.72 V:47.84 Avg:38.38 Global:38.35
[libx264 @ 0x564dedf60c60] consecutive B-frames:  1.3%  0.0%  0.0% 98.7%
[libx264 @ 0x564dedf60c60] mb I  I16..4:  1.8% 69.9% 28.3%
[libx264 @ 0x564dedf60c60] mb P  I16..4:  0.0%  0.0%  0.0%  P16..4: 41.2% 26.0% 16.3%  0.0%  0.0%    skip:16.5%
[libx264 @ 0x564dedf60c60] mb B  I16..4:  0.0%  0.0%  0.0%  B16..8: 43.6%  2.4%  0.1%  direct: 0.1%  skip:53.9%  L0:36.9% L1:56.8% BI: 6.3%
[libx264 @ 0x564dedf60c60] 8x8 transform intra:69.8% inter:59.5%
[libx264 @ 0x564dedf60c60] coded y,uvDC,uvAC intra: 95.6% 85.5% 32.6% inter: 10.1% 4.4% 0.0%
[libx264 @ 0x564dedf60c60] i16 v,h,dc,p: 26% 11% 58%  5%
[libx264 @ 0x564dedf60c60] i8 v,h,dc,ddl,ddr,vr,hd,vl,hu:  7% 11% 13%  6% 14%  6% 18% 15%  8%
[libx264 @ 0x564dedf60c60] i4 v,h,dc,ddl,ddr,vr,hd,vl,hu:  7% 12% 12%  6% 14%  6% 22% 15%  6%
[libx264 @ 0x564dedf60c60] i8c dc,h,v,p: 45% 23% 16% 16%
[libx264 @ 0x564dedf60c60] Weighted P-Frames: Y:1.3% UV:0.0%
[libx264 @ 0x564dedf60c60] ref P L0: 65.2% 18.7% 14.0%  2.1%  0.0%
[libx264 @ 0x564dedf60c60] ref B L0: 94.5%  5.1%  0.4%
[libx264 @ 0x564dedf60c60] ref B L1: 93.5%  6.5%
[libx264 @ 0x564dedf60c60] PSNR Mean Y:36.948 U:45.763 V:47.865 Avg:38.483 Global:38.438 kb/s:258.63
